HIERARCHY
ROOT base
{
	OFFSET 0.0 0.0 0.0
	CHANNELS 6 Xposition Yposition Zposition Zrotation Yrotation Xrotation
	JOINT root
	{
		OFFSET 0 0 0
		CHANNELS 6 Xposition Yposition Zposition Zrotation Yrotation Xrotation
		JOINT chest
		{
			OFFSET 0 4.72302 0
			CHANNELS 3 Zrotation Yrotation Xrotation
			JOINT neck
			{
				OFFSET 0 4.47788 0
				CHANNELS 3 Zrotation Yrotation Xrotation
				End Site
				{
					OFFSET 0.0 0.0 0.0
				}
			}
			JOINT right_shoulder
			{
				OFFSET -0.481 4.87 3.6622
				CHANNELS 3 Zrotation Yrotation Xrotation
				JOINT right_elbow
				{
					OFFSET 0 -5.49576 0
					CHANNELS 3 Zrotation Yrotation Xrotation
					JOINT right_wrist
					{
						OFFSET 0 -5.17894 0
						CHANNELS 3 Zrotation Yrotation Xrotation
						End Site
						{
							OFFSET 0.0 0.0 0.0
						}
					}
				}
			}
			JOINT left_shoulder
			{
				OFFSET -0.481 4.87 -3.6622
				CHANNELS 3 Zrotation Yrotation Xrotation
				JOINT left_elbow
				{
					OFFSET 0 -5.49576 0
					CHANNELS 3 Zrotation Yrotation Xrotation
					JOINT left_wrist
					{
						OFFSET 0 -5.17894 0
						CHANNELS 3 Zrotation Yrotation Xrotation
						End Site
						{
							OFFSET 0.0 0.0 0.0
						}
					}
				}
			}
		}
		JOINT right_hip
		{
			OFFSET 0 0 1.69774
			CHANNELS 3 Zrotation Yrotation Xrotation
			JOINT right_knee
			{
				OFFSET 0 -8.43092 0
				CHANNELS 3 Zrotation Yrotation Xrotation
				JOINT right_ankle
				{
					OFFSET 0 -8.1974 0
					CHANNELS 3 Zrotation Yrotation Xrotation
					End Site
					{
						OFFSET 0.0 0.0 0.0
					}
				}
			}
		}
		JOINT left_hip
		{
			OFFSET 0 0 -1.69774
			CHANNELS 3 Zrotation Yrotation Xrotation
			JOINT left_knee
			{
				OFFSET 0 -8.43092 0
				CHANNELS 3 Zrotation Yrotation Xrotation
				JOINT left_ankle
				{
					OFFSET 0 -8.1974 0
					CHANNELS 3 Zrotation Yrotation Xrotation
					End Site
					{
						OFFSET 0.0 0.0 0.0
					}
				}
			}
		}
	}
	JOINT red_arrow
	{
		OFFSET 0 0 0
		CHANNELS 3 Zrotation Yrotation Xrotation
		End Site
		{
			OFFSET 0.0 0.0 0.0
		}
	}
	JOINT blue_arrow
	{
		OFFSET 0 0 0
		CHANNELS 3 Zrotation Yrotation Xrotation
		End Site
		{
			OFFSET 0.0 0.0 0.0
		}
	}
}
MOTION
Frames: 11
Frame Time: 0.0333333333333333
0 18.08466 0 0 0 0 0 0 0 0 -90 0 0 0 0 0 0 0 0 0 -90 0 0 0 0 0 0 0 0 90 0 0 0 0 0 0 0 0 0 0 0 0 0 0 0 0 0 0 0 0 0 0 0 0 0 0 0 0 0 0
0.796618717908859 0 0.0791476521641016 0 0.332901112340696 0 0 16.9769961714745 0 -5.99275058953631 5.90141981912176E-17 0.472695105337078 -0.689312414581425 -5.77946817888011 0.887218450387811 0.176527416682535 -0.0398427198409109 -0.2130979557754 -14.0016582349052 11.3536968417205 -8.1653762829614 9.35310822393278 0 0 0 0 0 7.78358714589234 -16.6998605161363 20.1397788654842 33.733481272898 0 0 0 0 0 26.76747211223 -5.39085228438835 2.94031737362965 -12.4642978106877 0 0 -6.47029637720985 2.19514562087618 -5.0920900012961 -7.90995552603001 9.90909158373361 -1.02203829667724 -25.0849437741188 0 0 12.1194603332177 -8.56720915651053 10.33092835131 0 0 0 0 0 0
1.4385280713439 0 0.218355086445808 0 0.255783809273983 0 0 17.0003503441811 0 -7.01977928376979 -1.45425016935504 -1.77088788372164 -1.04202167700351 -5.37429194212955 1.35679055703045 -0.341177596863714 0.344791412880417 -0.505520522598466 -12.2493412371892 12.5534191805284 -7.82387116682699 9.46929315680928 0 0 0 0 0 6.38617113257436 -15.5089761086132 19.8432507277229 33.8237183171176 0 0 0 0 0 25.8400768701427 -3.72651519836362 6.230245331765 -12.8755742364654 0 0 -6.1639043644713 0.77873222498228 -5.15905486083903 -4.20543534873858 10.7193142403287 1.9857808748106 -27.7600829852027 0 0 8.89264422349002 -9.60577461798469 9.83432791035518 0 0 0 0 0 0
2.1157348960638 0 0.31073439270258 0 0.142027064149123 0 0 17.0789421439171 0 -7.12551393999235 -2.14470104951095 -3.49670988542272 -0.819265730523205 -5.91074430202116 1.11624366862182 -0.884346773725958 -0.0635295508974666 -0.921166758553529 -11.159650080042 13.9931179525766 -7.8716930174026 9.87836684657969 0 0 0 0 0 4.61739116492938 -14.0989073408289 18.9304705293089 33.0734459424538 0 0 0 0 0 23.4770991532705 -3.30980505312814 8.45551605397765 -12.7362494764545 0 0 -3.88984571502956 0.628709083795436 -5.30397770301709 -0.182175227295882 10.4641512017913 4.41149454510946 -33.0561075072457 0 0 4.94545904880585 -10.8326516538808 8.4972739924357 0 0 0 0 0 0
2.8267187923193 0 0.364810490608215 0 0.0289770334547879 0 0 17.1446360468864 0 -6.5371542857305 -2.13399807476309 -4.87369288376663 -0.0671450442265967 -6.26812571661323 0.697961363648112 -1.02156348791411 -0.702365160223806 -1.28928644434644 -9.81282090084517 15.7573443771755 -8.05652627488241 10.2262488715759 0 0 0 0 0 2.69979246461075 -11.8285220635802 17.5557734474907 31.6537091611966 0 0 0 0 0 20.6288196230889 -2.80857238901369 9.98220696327718 -13.1270933913302 0 0 -1.19143015977721 0.112162126500748 -5.27082999418638 4.42825412516068 9.20118665386078 6.80312779633851 -41.121423690534 0 0 0.682790620429844 -11.7922635071846 6.17224151328488 0 0 0 0 0 0
3.54572336822748 0 0.375509894639254 0 -0.028425380465601 0 0 17.2077997088432 0 -5.58921234486554 -1.0854619106704 -5.76504956564711 0.836078437348563 -6.6125233137027 0.0253805236209945 -1.03929156597324 -1.47341730029669 -1.465197735148 -8.04003227833326 17.7015839089829 -8.16386098974159 10.6163235363963 0 0 0 0 0 0.655071888699678 -8.76654641316357 16.303069843418 29.568121143417 0 0 0 0 0 17.1803308149775 -2.774138236786 10.6386470920728 -13.2447288856317 0 0 1.47988439707968 -0.588583373582846 -5.1259255517875 9.50586048882403 7.04513181575873 9.14657072025532 -51.007302891427 0 0 -4.0686217386825 -12.1902026389796 3.74712151049839 0 0 0 0 0 0
4.25465379208326 0 0.329395975917578 0 -0.00793956135534716 0 0 17.2702932476997 0 -4.55544738234458 0.388000997643074 -6.09104476630832 1.67553371007801 -6.65523315992533 -0.772122014606472 -0.998526442619848 -2.35813924860695 -1.41106756920701 -5.88841194060177 19.6726757995524 -8.29542914665791 11.3049893122939 0 0 0 0 0 -1.56031581575762 -5.47997826145648 15.4944654321789 26.8358678904935 0 0 0 0 0 13.234255006529 -3.06765308140255 10.57156228376 -12.611508877869 0 0 3.76503461017794 -1.14269967893836 -4.86726919632524 14.6610203166926 4.50317041435561 11.1780716485198 -61.1053926547378 0 0 -9.58426109933751 -12.0741251840581 1.24779869377687 0 0 0 0 0 0
4.94564694613218 0 0.213490848243237 0 0.0785875328047257 0 0 17.329572224617 0 -3.55390692039312 1.64085494536319 -5.76769773298306 2.32810178713799 -6.18630669983039 -1.63337810586363 -0.996246801643599 -3.29744521039888 -1.17686903663823 -3.54079326481112 21.6779036287383 -8.53483434105698 12.4732171839701 0 0 0 0 0 -3.91700897160115 -2.19180135376635 15.0199919384187 23.7467901874028 0 0 0 0 0 9.09631919393134 -3.31789098618347 9.80973165776584 -11.3506627872738 0 0 5.63449402145047 -1.43464904221041 -4.42988257742017 19.6172866326857 2.29477053338678 12.7020782191037 -70.0014681618693 0 0 -13.3919152179912 -11.1124338234281 -0.117012611564081 0 0 0 0 0 0
5.6115621343255 0 0.0309750847518444 0 0.213378324527515 0 0 17.3830457210541 0 -2.64872754069817 2.55829255574919 -4.81098547307886 2.58452170056859 -5.36951224886156 -2.66568727783513 -1.0487806021748 -4.1419420223422 -0.759154991601235 -0.977870010847983 23.7395910280849 -8.92488359110496 14.2146712430605 0 0 0 0 0 -6.34697129320459 0.975031826689518 14.8170845274898 20.7868867294428 0 0 0 0 0 4.92195720987972 -3.74876156026945 8.32257755671696 -9.59567385456932 0 0 7.12353606133107 -1.28666121121358 -3.78228434959466 24.4456021629947 0.800369562568805 13.6153752983789 -76.4274672273682 0 0 -14.1163075544513 -9.24879144282796 -0.471102036484948 0 0 0 0 0 0
6.24102752059698 0 -0.201842124015093 0 0.390479692793887 0 0 17.4223801970482 0 -2.0441540598558 3.36278959340195 -3.44780413860354 2.4793215357483 -4.35446268301382 -3.7847671719862 -1.16975057090401 -4.69002318318307 -0.272951856170795 1.80220209562524 25.891259913733 -9.69269744740771 16.4857765902078 0 0 0 0 0 -8.78729225137746 4.02947478277456 14.8540000719253 18.1385389353783 0 0 0 0 0 1.00006388932824 -4.7622101854947 6.32478391915296 -7.48469546232381 0 0 8.29415635476721 -0.701757161999475 -2.92065279917561 29.6657601965198 0.175242754441897 13.8634953615887 -79.4307150658012 0 0 -12.1185546846806 -6.77878404122733 -0.0897553738603412 0 0 0 0 0 0
6.84342500306666 0 -0.455290947854519 0 0.622023096326789 0 0 17.4316118717194 0 -1.710784010304 4.39737139972944 -2.06650219668272 1.98257098880798 -3.26040653983884 -4.77714102278147 -1.3100836051552 -4.81375026793648 0.171886637986524 4.79273637531507 28.1180343004255 -10.8943222466419 19.0866443242569 0 0 0 0 0 -11.1255987246846 6.97375470544071 15.1782310922061 15.8860313395673 0 0 0 0 0 -2.62456330843261 -6.36425101010322 4.35152832957291 -5.22498457825939 0 0 9.32864096676435 -0.100133602082046 -1.93543600937254 35.1998277392994 0.406222700701773 13.5378612719759 -78.4945146966458 0 0 -7.9409817063326 -3.78896556586726 0.826478226269241 0 0 0 0 0 0
